<svg width="30" height="30" viewBox="0 0 30 30" fill="none" xmlns="http://www.w3.org/2000/svg">
<mask id="mask0_230_1472" style="mask-type:luminance" maskUnits="userSpaceOnUse" x="0" y="0" width="30" height="30">
<rect width="30" height="30" fill="white"/>
</mask>
<g mask="url(#mask0_230_1472)">
<path fill-rule="evenodd" clip-rule="evenodd" d="M16.6475 3.51135C16.6475 3.31432 16.6088 3.1192 16.5335 2.93714C16.4581 2.75508 16.3476 2.58965 16.2083 2.45028C16.0691 2.31092 15.9037 2.20035 15.7217 2.1249C15.5397 2.04944 15.3446 2.01058 15.1475 2.01052C14.9505 2.01046 14.7554 2.04921 14.5733 2.12456C14.3913 2.19991 14.2258 2.31037 14.0865 2.44966C13.9471 2.58894 13.8365 2.75431 13.7611 2.93632C13.6856 3.11834 13.6468 3.31343 13.6467 3.51047L13.6476 13.501L3.65617 13.501C3.26703 13.5143 2.89826 13.6782 2.62771 13.9582C2.35716 14.2383 2.20599 14.6125 2.2061 15.0018C2.20622 15.3912 2.35761 15.7653 2.62833 16.0451C2.89904 16.325 3.2679 16.4887 3.65706 16.5018L13.6476 16.5009L13.6467 26.4914C13.6477 26.7877 13.7363 27.0771 13.9014 27.3232C14.0665 27.5693 14.3006 27.7611 14.5744 27.8745C14.8481 27.9878 15.1493 28.0177 15.44 27.9603C15.7307 27.903 15.998 27.7609 16.2082 27.5521C16.4796 27.2807 16.6475 26.906 16.6475 26.4923L16.6475 16.5009L26.638 16.5018C26.8351 16.5021 27.0303 16.4635 27.2124 16.3883C27.3945 16.313 27.56 16.2025 27.6994 16.0632C27.8387 15.9238 27.9492 15.7584 28.0245 15.5762C28.0997 15.3941 28.1383 15.1989 28.138 15.0018C28.1381 14.8047 28.0993 14.6095 28.024 14.4274C27.9486 14.2452 27.838 14.0797 27.6986 13.9403C27.5592 13.801 27.3938 13.6904 27.2116 13.615C27.0295 13.5396 26.8343 13.5009 26.6371 13.501L16.6475 13.501L16.6475 3.51135Z" fill="#CCCCCC"/>
</g>
</svg>
