<svg width="30" height="30" viewBox="0 0 30 30" fill="none" xmlns="http://www.w3.org/2000/svg">
<rect x="19" y="5" width="1" height="1" fill="black"/>
<rect x="18" y="5" width="1" height="1" fill="black"/>
<rect x="20" y="5" width="1" height="1" fill="black"/>
<rect x="20" y="6" width="1" height="1" fill="black"/>
<rect x="19" y="6" width="1" height="1" fill="black"/>
<rect x="18" y="6" width="1" height="1" fill="black"/>
<rect x="17" y="6" width="1" height="1" fill="black"/>
<rect x="17" y="7" width="1" height="1" fill="black"/>
<rect x="17" y="8" width="1" height="1" fill="black"/>
<rect x="17" y="9" width="1" height="1" fill="black"/>
<rect x="18" y="7" width="1" height="1" fill="black"/>
<rect x="18" y="8" width="1" height="1" fill="black"/>
<rect x="18" y="9" width="1" height="1" fill="black"/>
<rect x="19" y="7" width="1" height="1" fill="black"/>
<rect x="19" y="8" width="1" height="1" fill="black"/>
<rect x="20" y="7" width="1" height="1" fill="black"/>
<rect x="16" y="7" width="1" height="1" fill="black"/>
<rect x="16" y="8" width="1" height="1" fill="black"/>
<rect x="16" y="9" width="1" height="1" fill="black"/>
<rect x="15" y="8" width="1" height="1" fill="black"/>
<rect x="15" y="9" width="1" height="1" fill="black"/>
<rect x="14" y="9" width="1" height="1" fill="black"/>
<rect x="13" y="10" width="1" height="1" fill="black"/>
<rect x="12" y="11" width="1" height="1" fill="black"/>
<rect x="11" y="12" width="1" height="1" fill="black"/>
<rect x="15" y="10" width="1" height="1" fill="black"/>
<rect x="14" y="11" width="1" height="1" fill="black"/>
<rect x="13" y="12" width="1" height="1" fill="black"/>
<rect x="17" y="10" width="1" height="1" fill="black"/>
<rect x="16" y="11" width="1" height="1" fill="black"/>
<rect x="15" y="12" width="1" height="1" fill="black"/>
<rect x="14" y="10" width="1" height="1" fill="black"/>
<rect x="13" y="11" width="1" height="1" fill="black"/>
<rect x="12" y="12" width="1" height="1" fill="black"/>
<rect x="16" y="10" width="1" height="1" fill="black"/>
<rect x="15" y="11" width="1" height="1" fill="black"/>
<rect x="14" y="12" width="1" height="1" fill="black"/>
<rect x="10" y="13" width="1" height="1" fill="black"/>
<rect x="12" y="13" width="1" height="1" fill="black"/>
<rect x="14" y="13" width="1" height="1" fill="black"/>
<rect x="11" y="13" width="1" height="1" fill="black"/>
<rect x="13" y="13" width="1" height="1" fill="black"/>
<rect x="9" y="14" width="1" height="1" fill="black"/>
<rect x="11" y="14" width="1" height="1" fill="black"/>
<rect x="13" y="14" width="1" height="1" fill="black"/>
<rect x="10" y="14" width="1" height="1" fill="black"/>
<rect x="12" y="14" width="1" height="1" fill="black"/>
<rect x="9" y="15" width="1" height="1" fill="black"/>
<rect x="11" y="15" width="1" height="1" fill="black"/>
<rect x="13" y="15" width="1" height="1" fill="black"/>
<rect x="10" y="15" width="1" height="1" fill="black"/>
<rect x="12" y="15" width="1" height="1" fill="black"/>
<rect x="10" y="16" width="1" height="1" fill="black"/>
<rect x="12" y="16" width="1" height="1" fill="black"/>
<rect x="14" y="16" width="1" height="1" fill="black"/>
<rect x="11" y="16" width="1" height="1" fill="black"/>
<rect x="13" y="16" width="1" height="1" fill="black"/>
<rect x="11" y="17" width="1" height="1" fill="black"/>
<rect x="13" y="17" width="1" height="1" fill="black"/>
<rect x="15" y="17" width="1" height="1" fill="black"/>
<rect x="12" y="17" width="1" height="1" fill="black"/>
<rect x="14" y="17" width="1" height="1" fill="black"/>
<rect x="12" y="18" width="1" height="1" fill="black"/>
<rect x="14" y="18" width="1" height="1" fill="black"/>
<rect x="16" y="18" width="1" height="1" fill="black"/>
<rect x="13" y="18" width="1" height="1" fill="black"/>
<rect x="15" y="18" width="1" height="1" fill="black"/>
<rect x="13" y="19" width="1" height="1" fill="black"/>
<rect x="15" y="19" width="1" height="1" fill="black"/>
<rect x="17" y="19" width="1" height="1" fill="black"/>
<rect x="14" y="19" width="1" height="1" fill="black"/>
<rect x="16" y="19" width="1" height="1" fill="black"/>
<rect x="14" y="20" width="1" height="1" fill="black"/>
<rect x="16" y="20" width="1" height="1" fill="black"/>
<rect x="18" y="20" width="1" height="1" fill="black"/>
<rect x="15" y="20" width="1" height="1" fill="black"/>
<rect x="17" y="20" width="1" height="1" fill="black"/>
<rect x="15" y="21" width="1" height="1" fill="black"/>
<rect x="17" y="21" width="1" height="1" fill="black"/>
<rect x="19" y="21" width="1" height="1" fill="black"/>
<rect x="16" y="21" width="1" height="1" fill="black"/>
<rect x="18" y="21" width="1" height="1" fill="black"/>
<rect x="16" y="22" width="1" height="1" fill="black"/>
<rect x="18" y="22" width="1" height="1" fill="black"/>
<rect x="17" y="22" width="1" height="1" fill="black"/>
<rect x="19" y="22" width="1" height="1" fill="black"/>
<rect x="20" y="22" width="1" height="1" fill="black"/>
<rect x="17" y="23" width="1" height="1" fill="black"/>
<rect x="19" y="23" width="1" height="1" fill="black"/>
<rect x="19" y="24" width="1" height="1" fill="black"/>
<rect x="18" y="23" width="1" height="1" fill="black"/>
<rect x="18" y="24" width="1" height="1" fill="black"/>
<rect x="20" y="23" width="1" height="1" fill="black"/>
<rect x="20" y="24" width="1" height="1" fill="black"/>
</svg>
