<svg width="30" height="30" viewBox="0 0 30 30" fill="none">
<mask id="mask0_118_511" style="mask-type:luminance" maskUnits="userSpaceOnUse" x="0" y="0" width="30" height="30">
<rect width="30" height="30" fill="white"/>
</mask>
<g mask="url(#mask0_118_511)">
<path fill-rule="evenodd" clip-rule="evenodd" d="M18.573 24.9966C18.3684 24.9117 18.1826 24.7871 18.0262 24.6301L9.58869 16.1926C9.43193 16.0359 9.30758 15.8499 9.22274 15.6451C9.13791 15.4403 9.09424 15.2208 9.09424 14.9992C9.09424 14.7775 9.13791 14.5581 9.22274 14.3533C9.30758 14.1485 9.43193 13.9625 9.58869 13.8057L18.0262 5.36825C18.1817 5.20609 18.368 5.07661 18.5741 4.9874C18.7803 4.89819 19.0022 4.85104 19.2268 4.84872C19.4515 4.8464 19.6743 4.88896 19.8823 4.9739C20.0903 5.05884 20.2792 5.18445 20.438 5.34336C20.5968 5.50227 20.7222 5.69129 20.807 5.89933C20.8918 6.10737 20.9342 6.33024 20.9317 6.55487C20.9292 6.77951 20.8818 7.00138 20.7925 7.20749C20.7031 7.41359 20.5735 7.59978 20.4112 7.75512L13.1681 15.0001L20.4112 22.2432C20.6475 22.4791 20.8086 22.7799 20.8739 23.1073C20.9393 23.4348 20.906 23.7743 20.7784 24.0828C20.6507 24.3914 20.4343 24.6551 20.1567 24.8407C19.8791 25.0262 19.5526 25.1252 19.2187 25.1251C18.9971 25.1252 18.7777 25.0816 18.573 24.9966Z" fill="#8B95A1"/>
</g>
</svg>
