<svg width="47" height="47" viewBox="0 0 47 47" fill="none">
<mask id="mask0_127_243" style="mask-type:luminance" maskUnits="userSpaceOnUse" x="10" y="0" width="27" height="26">
<rect x="10.5" width="26" height="26" fill="white"/>
</mask>
<g mask="url(#mask0_127_243)">
<path fill-rule="evenodd" clip-rule="evenodd" d="M15.375 2.16669C15.0876 2.16669 14.8121 2.28082 14.6089 2.48399C14.4058 2.68715 14.2916 2.9627 14.2916 3.25002V22.75C14.2916 23.0373 14.4058 23.3129 14.6089 23.5161C14.8121 23.7192 15.0876 23.8334 15.375 23.8334H24.5833V18.4167C24.5833 16.9239 25.7988 15.7084 27.2916 15.7084H32.7083V3.25002C32.7083 2.9627 32.5942 2.68715 32.391 2.48399C32.1878 2.28082 31.9123 2.16669 31.625 2.16669H15.375Z" fill="#8B95A1"/>
<path fill-rule="evenodd" clip-rule="evenodd" d="M26.2083 23.8334L32.7083 17.3334H27.2916C27.0043 17.3334 26.7287 17.4475 26.5256 17.6507C26.3224 17.8538 26.2083 18.1294 26.2083 18.4167V23.8334Z" fill="#8B95A1"/>
</g>
<path d="M17.6165 29.5312V39.9492H16.7376V29.5312H17.6165ZM8.71029 37.0312C10.972 35.6895 12.1087 33.8086 12.2845 31.6289H9.1556V30.8672H13.1986C13.1986 31.8926 13.0345 32.8828 12.6771 33.8086H14.5462V29.8125H15.4251V39.4219H14.5462V34.5586H12.3372C11.7103 35.7715 10.7025 36.8438 9.24935 37.6992L8.71029 37.0312ZM22.4395 32.332C22.4336 34.2363 23.7285 36.1465 25.2637 36.8438L24.7012 37.5703C23.5117 36.9961 22.4863 35.7598 21.9883 34.2773C21.5078 35.8477 20.4824 37.166 19.2637 37.7812L18.6777 37.0078C20.2305 36.2988 21.5137 34.3066 21.5254 32.332V30.4336H22.4395V32.332ZM26.4004 39.9727V29.5312H27.3262V39.9727H26.4004ZM34.7272 30.5273V31.2773H33.6608V34.7285C34.194 34.6934 34.7214 34.6406 35.2194 34.582L35.2897 35.2734C33.1745 35.6016 30.7253 35.6543 28.9147 35.6484L28.8092 34.8867C29.2311 34.8867 29.6823 34.8809 30.1569 34.8691V31.2773H29.1022V30.5273H34.7272ZM30.403 39.7266V36.4805H31.3053V38.9531H37.3991V39.7266H30.403ZM31.0592 34.8516C31.6159 34.8398 32.1901 34.8164 32.7585 34.7871V31.2773H31.0592V34.8516ZM36.0046 37.207V29.543H36.9186V32.707H38.4889V33.4922H36.9186V37.207H36.0046Z" fill="#8B95A1"/>
</svg>
