<svg width="24" height="33" viewBox="0 0 24 33" fill="none">
<mask id="mask0_530_2029" style="mask-type:luminance" maskUnits="userSpaceOnUse" x="2" y="1" width="20" height="20">
<rect x="2" y="1" width="20" height="20" fill="white"/>
</mask>
<g mask="url(#mask0_530_2029)">
<path fill-rule="evenodd" clip-rule="evenodd" d="M14.336 15.4769C14.1953 15.6175 14.0046 15.6965 13.8057 15.6965C13.6067 15.6965 13.416 15.6175 13.2753 15.4769C13.1347 15.3362 13.0557 15.1454 13.0557 14.9465V10.7749C13.0557 10.576 13.1347 10.3852 13.2753 10.2445C13.416 10.1039 13.6067 10.0249 13.8057 10.0249C14.0046 10.0249 14.1953 10.1039 14.336 10.2445C14.4766 10.3852 14.5557 10.576 14.5557 10.7749V14.9465C14.5557 15.1454 14.4766 15.3362 14.336 15.4769ZM10.8918 15.4769C10.7512 15.6175 10.5604 15.6965 10.3615 15.6965C10.1626 15.6965 9.97181 15.6175 9.83115 15.4769C9.6905 15.3362 9.61148 15.1454 9.61148 14.9465V10.7749C9.61148 10.576 9.6905 10.3852 9.83115 10.2445C9.97181 10.1039 10.1626 10.0249 10.3615 10.0249C10.5604 10.0249 10.7512 10.1039 10.8918 10.2445C11.0325 10.3852 11.1115 10.576 11.1115 10.7749V14.9465C11.1115 15.1454 11.0325 15.3362 10.8918 15.4769ZM9.7689 3.62644C9.92518 3.47016 10.1371 3.38236 10.3582 3.38236H13.8115C14.2707 3.38236 14.6448 3.7557 14.6448 4.2157V4.99987H9.52482V4.2157C9.52482 3.99468 9.61262 3.78272 9.7689 3.62644ZM16.3115 4.99987V4.2157C16.3115 2.83736 15.1907 1.7157 13.8115 1.7157H10.3582C8.97982 1.7157 7.85815 2.83736 7.85815 4.2157V4.99987H5.08398C4.81877 4.99987 4.56441 5.10522 4.37688 5.29276C4.18934 5.48029 4.08398 5.73465 4.08398 5.99986V6.49986C4.08398 6.76508 4.18934 7.01944 4.37688 7.20697C4.56441 7.39451 4.81877 7.49986 5.08398 7.49986H5.19315L5.58648 17.5299C5.60694 18.0463 5.82654 18.5348 6.19924 18.8929C6.57194 19.251 7.0688 19.4509 7.58565 19.4507H16.5823C17.099 19.4509 17.5957 19.2509 17.9681 18.8928C18.3405 18.5346 18.5598 18.0462 18.5798 17.5299L18.9748 7.4882C19.2285 7.4752 19.4676 7.36552 19.6429 7.18169C19.8182 6.99787 19.9164 6.75387 19.9173 6.49986V5.99986C19.9173 5.4482 19.469 4.99987 18.9165 4.99987H16.3115Z" fill="#D1D1D1" fill-opacity="0.8"/>
</g>
</svg>
