<svg width="24" height="33" viewBox="0 0 24 33" fill="none" xmlns="http://www.w3.org/2000/svg">
<rect width="24" height="33" rx="10" fill="white" fill-opacity="0.6"/>
<mask id="mask0_566_2100" style="mask-type:luminance" maskUnits="userSpaceOnUse" x="2" y="1" width="20" height="20">
<rect x="2" y="1" width="20" height="20" fill="white"/>
</mask>
<g mask="url(#mask0_566_2100)">
<path opacity="0.8" fill-rule="evenodd" clip-rule="evenodd" d="M12.9122 18.9398C14.6747 17.7764 18.5122 14.9956 20.1655 11.8839C22.3447 7.77892 19.7855 3.68475 16.4022 3.68475C14.4739 3.68475 13.3139 4.69225 12.6722 5.55809C12.5951 5.66413 12.4941 5.75043 12.3772 5.80994C12.2604 5.86944 12.1312 5.90047 12.0001 5.90047C11.869 5.90047 11.7398 5.86944 11.623 5.80994C11.5062 5.75043 11.4051 5.66413 11.328 5.55809C10.6864 4.69225 9.52636 3.68475 7.59803 3.68475C4.2147 3.68475 1.65553 7.77892 3.83553 11.8839C5.4872 14.9956 9.32636 17.7764 11.0872 18.9398C11.6422 19.3064 12.358 19.3064 12.9122 18.9398Z" fill="#EB3E3E"/>
</g>
<path d="M12.75 27.75V28.5H9.75V27.75H12V27H12.75V25.5H9.75V24.75H9V22.5H9.75V21.75H13.5V22.5H14.25V27H13.5V27.75H12.75ZM10.5 24.75H12.75V24V23.25V22.5H10.5V23.25V24.75Z" fill="#3C3C3C"/>
</svg>
