<svg width="24" height="24" viewBox="0 0 24 24" fill="none" xmlns="http://www.w3.org/2000/svg">
<mask id="mask0_567_2779" style="mask-type:luminance" maskUnits="userSpaceOnUse" x="0" y="0" width="24" height="24">
<rect width="24" height="24" fill="white"/>
</mask>
<g mask="url(#mask0_567_2779)">
<path d="M19.6105 2.91003H19.6005C18.9905 2.91003 18.5005 3.41003 18.5105 4.02003L18.5505 12.6C18.5505 13 18.4005 13.38 18.1105 13.66C17.8305 13.94 17.4505 14.1 17.0505 14.1H5.99047L9.92047 10.17C10.3505 9.74003 10.3505 9.04003 9.92047 8.61003C9.49047 8.18003 8.80047 8.18003 8.36047 8.61003L2.55047 14.42C2.34047 14.63 2.23047 14.91 2.23047 15.2C2.23047 15.49 2.35047 15.77 2.55047 15.98L8.36047 21.79C8.57047 22 8.86047 22.11 9.14047 22.11C9.42047 22.11 9.70047 22 9.92047 21.79C10.3505 21.36 10.3505 20.66 9.92047 20.24L5.99047 16.31H17.0605C18.0505 16.31 18.9805 15.92 19.6805 15.22C20.3805 14.52 20.7605 13.59 20.7605 12.6L20.7105 4.00003C20.7105 3.39003 20.2205 2.91003 19.6105 2.91003Z" fill="#8B95A1"/>
</g>
</svg>
