<svg width="24" height="33" viewBox="0 0 24 33" fill="none">
<rect width="24" height="33" rx="10" fill="white" fill-opacity="0.6"/>
<mask id="mask0_530_2258" style="mask-type:luminance" maskUnits="userSpaceOnUse" x="2" y="1" width="20" height="20">
<rect x="2" y="1" width="20" height="20" fill="white"/>
</mask>
<g mask="url(#mask0_530_2258)">
<path opacity="0.8" fill-rule="evenodd" clip-rule="evenodd" d="M12.9122 18.9397C14.6747 17.7764 18.5122 14.9955 20.1655 11.8839C22.3447 7.77886 19.7855 3.68469 16.4022 3.68469C14.4739 3.68469 13.3139 4.69219 12.6722 5.55803C12.5951 5.66407 12.4941 5.75037 12.3772 5.80988C12.2604 5.86938 12.1312 5.9004 12.0001 5.9004C11.869 5.9004 11.7398 5.86938 11.623 5.80988C11.5062 5.75037 11.4051 5.66407 11.328 5.55803C10.6864 4.69219 9.52636 3.68469 7.59803 3.68469C4.2147 3.68469 1.65553 7.77886 3.83553 11.8839C5.4872 14.9955 9.32636 17.7764 11.0872 18.9397C11.6422 19.3064 12.358 19.3064 12.9122 18.9397Z" fill="white"/>
</g>
</svg>
