<svg width="24" height="24" viewBox="0 0 24 24" fill="none" xmlns="http://www.w3.org/2000/svg">
<mask id="mask0_600_2344" style="mask-type:luminance" maskUnits="userSpaceOnUse" x="0" y="0" width="24" height="24">
<rect x="24" width="24" height="24" transform="rotate(90 24 0)" fill="white"/>
</mask>
<g mask="url(#mask0_600_2344)">
<path fill-rule="evenodd" clip-rule="evenodd" d="M10.1534 4.46446C10.254 4.22177 10.4014 4.00128 10.5872 3.81556C10.773 3.62984 10.9936 3.48254 11.2364 3.38207C11.4791 3.28159 11.7392 3.22991 12.002 3.22998C12.2647 3.23005 12.5248 3.28186 12.7675 3.38245C13.0102 3.48305 13.2307 3.63046 13.4164 3.81627C13.6021 4.00208 13.7494 4.22265 13.8499 4.46538C13.9503 4.70812 14.002 4.96827 14.002 5.23098C14.0018 5.76155 13.7909 6.27033 13.4157 6.6454C13.0404 7.02047 12.5315 7.23111 12.001 7.23098C11.4704 7.23085 10.9616 7.01995 10.5865 6.64469C10.2115 6.26943 10.0008 5.76055 10.001 5.22998C10.001 4.96727 10.0528 4.70715 10.1534 4.46446ZM10.5867 10.5868C10.9618 10.2117 11.4705 10.001 12.001 10.001C12.5314 10.001 13.0401 10.2117 13.4152 10.5868C13.7902 10.9618 14.001 11.4705 14.001 12.001C14.001 12.5314 13.7902 13.0401 13.4152 13.4152C13.0401 13.7903 12.5314 14.001 12.001 14.001C11.4705 14.001 10.9618 13.7903 10.5867 13.4152C10.2117 13.0401 10.001 12.5314 10.001 12.001C10.001 11.4705 10.2117 10.9618 10.5867 10.5868ZM10.1534 18.0055C10.254 17.7628 10.4014 17.5423 10.5872 17.3566C10.773 17.1708 10.9936 17.0235 11.2364 16.9231C11.4791 16.8226 11.7392 16.7709 12.002 16.771C12.2647 16.771 12.5248 16.8229 12.7675 16.9235C13.0102 17.024 13.2307 17.1715 13.4164 17.3573C13.6021 17.5431 13.7494 17.7636 13.8499 18.0064C13.9503 18.2491 14.002 18.5093 14.002 18.772C14.0018 19.3025 13.7909 19.8113 13.4157 20.1864C13.0404 20.5615 12.5315 20.7721 12.001 20.772C11.4704 20.7718 10.9616 20.561 10.5865 20.1857C10.2115 19.8104 10.0008 19.3015 10.001 18.771C10.001 18.5083 10.0528 18.2481 10.1534 18.0055Z" fill="#FFBE82"/>
</g>
</svg>
