<svg width="24" height="24" viewBox="0 0 24 24" fill="none" xmlns="http://www.w3.org/2000/svg">
<mask id="mask0_230_1572" style="mask-type:luminance" maskUnits="userSpaceOnUse" x="0" y="0" width="24" height="24">
<rect width="24" height="24" fill="white"/>
</mask>
<g mask="url(#mask0_230_1572)">
<path fill-rule="evenodd" clip-rule="evenodd" d="M10.397 17.6521C10.7346 17.9897 10.9242 18.4475 10.9242 18.9249C10.9242 19.4023 10.7346 19.8601 10.397 20.1977C10.0594 20.5353 9.60161 20.7249 9.12422 20.7249C8.64683 20.7249 8.18899 20.5353 7.85143 20.1977C7.51386 19.8601 7.32422 19.4023 7.32422 18.9249C7.32422 18.4475 7.51386 17.9897 7.85143 17.6521C8.18899 17.3145 8.64683 17.1249 9.12422 17.1249C9.60161 17.1249 10.0594 17.3145 10.397 17.6521ZM9.12422 13.9249C8.12422 13.9249 7.32422 13.1249 7.32422 12.1249C7.32422 11.1249 8.12422 10.3249 9.12422 10.3249C10.1242 10.3249 10.9242 11.1249 10.9242 12.1249C10.9242 13.1249 10.1242 13.9249 9.12422 13.9249ZM9.12422 7.1249C8.12422 7.1249 7.32422 6.3249 7.32422 5.3249C7.32422 4.3249 8.12422 3.5249 9.12422 3.5249C10.1242 3.5249 10.9242 4.3249 10.9242 5.3249C10.9242 6.3249 10.1242 7.1249 9.12422 7.1249ZM16.397 17.6521C16.7346 17.9897 16.9242 18.4475 16.9242 18.9249C16.9242 19.4023 16.7346 19.8601 16.397 20.1977C16.0594 20.5353 15.6016 20.7249 15.1242 20.7249C14.6468 20.7249 14.189 20.5353 13.8514 20.1977C13.5139 19.8601 13.3242 19.4023 13.3242 18.9249C13.3242 18.4475 13.5139 17.9897 13.8514 17.6521C14.189 17.3145 14.6468 17.1249 15.1242 17.1249C15.6016 17.1249 16.0594 17.3145 16.397 17.6521ZM15.1242 13.9249C14.1242 13.9249 13.3242 13.1249 13.3242 12.1249C13.3242 11.1249 14.1242 10.3249 15.1242 10.3249C16.1242 10.3249 16.9242 11.1249 16.9242 12.1249C16.9242 13.1249 16.1242 13.9249 15.1242 13.9249ZM15.1242 7.1249C14.1242 7.1249 13.3242 6.3249 13.3242 5.3249C13.3242 4.3249 14.1242 3.5249 15.1242 3.5249C16.1242 3.5249 16.9242 4.3249 16.9242 5.3249C16.9242 6.3249 16.1242 7.1249 15.1242 7.1249Z" fill="black"/>
</g>
</svg>
