<svg width="1.6em" height="1.6em" viewBox="0 0 1.6em 1.6em" fill="none">
<mask id="mask0_52_2679" style="mask-type:luminance" maskUnits="userSpaceOnUse" x="0" y="0" width="30" height="30">
<rect width="30" height="30" fill="white"/>
</mask>
<g mask="url(#mask0_52_2679)">
<path fill-rule="evenodd" clip-rule="evenodd" d="M22.3791 13.4997L15.5654 6.68594C14.9791 6.09969 14.9791 5.14969 15.5654 4.56469C16.1516 3.97844 17.1004 3.97844 17.6866 4.56469L27.0616 13.9397C27.0654 13.9422 27.0666 13.9472 27.0704 13.9509C27.2041 14.0872 27.3116 14.2484 27.3854 14.4259C27.5379 14.7934 27.5379 15.2059 27.3854 15.5734C27.3116 15.7522 27.2041 15.9122 27.0704 16.0484C27.0666 16.0522 27.0654 16.0572 27.0616 16.0609L17.6866 25.4359C17.3941 25.7284 17.0104 25.8747 16.6266 25.8747C16.2416 25.8747 15.8579 25.7284 15.5654 25.4359C14.9791 24.8497 14.9791 23.8997 15.5654 23.3147L22.3791 16.4997L4.83413 16.4997C4.00538 16.4997 3.33413 15.8284 3.33413 14.9997C3.33413 14.1722 4.00538 13.4997 4.83413 13.4997L22.3791 13.4997Z" fill="#8B95A1"/>
</g>
</svg>
