<svg width="47" height="47" viewBox="0 0 47 47" fill="none">
<mask id="mask0_127_388" style="mask-type:luminance" maskUnits="userSpaceOnUse" x="10" y="0" width="27" height="26">
<rect x="10.5" width="26" height="26" fill="white"/>
</mask>
<g mask="url(#mask0_127_388)">
<path fill-rule="evenodd" clip-rule="evenodd" d="M33.3247 8.88766L24.1738 1.61091C23.9823 1.45833 23.7448 1.37524 23.5 1.37524C23.2551 1.37524 23.0176 1.45833 22.8261 1.61091L13.6741 8.88766C13.419 9.09055 13.213 9.34836 13.0714 9.6419C12.9298 9.93545 12.8562 10.2572 12.8562 10.5831V20.7859C12.8562 21.4755 13.1301 22.1368 13.6177 22.6244C14.1053 23.112 14.7666 23.3859 15.4562 23.3859H21.3333V18.2379C21.3333 17.9506 21.4474 17.675 21.6506 17.4719C21.8538 17.2687 22.1293 17.1546 22.4166 17.1546H24.5833C24.8706 17.1546 25.1462 17.2687 25.3493 17.4719C25.5525 17.675 25.6666 17.9506 25.6666 18.2379V23.3859H31.5426C32.2322 23.3859 32.8935 23.112 33.3811 22.6244C33.8687 22.1368 34.1426 21.4755 34.1426 20.7859V10.5842C34.1426 10.2582 34.069 9.93653 33.9274 9.64299C33.7858 9.34944 33.5798 9.09163 33.3247 8.88874" fill="#484848"/>
</g>
<path d="M27.0684 36.832V39.8086H19.8965V36.832H27.0684ZM18.7363 36.0352V35.2969H23.0254V34.4941C21.1504 34.4238 20.0957 33.9316 20.0957 33.0234C20.0957 32.0566 21.3203 31.5586 23.4824 31.5469C25.6387 31.5586 26.8574 32.0566 26.8574 33.0234C26.8574 33.9316 25.8086 34.4238 23.9395 34.4941V35.2969H28.2285V36.0352H18.7363ZM19.2285 31.125V30.4102H23.0254V29.3789H23.9395V30.4102H27.6777V31.125H19.2285ZM20.8105 39.0938H26.166V37.5469H20.8105V39.0938ZM21.0801 33.0234C21.0742 33.5566 21.9531 33.8555 23.4824 33.8555C25.0117 33.8555 25.8789 33.5566 25.8848 33.0234C25.8789 32.4844 25.0117 32.2031 23.4824 32.1914C21.9531 32.2031 21.0742 32.4844 21.0801 33.0234Z" fill="#484848"/>
</svg>
