<svg width="24" height="24" viewBox="0 0 24 24" fill="none" xmlns="http://www.w3.org/2000/svg">
<mask id="mask0_914_126" style="mask-type:luminance" maskUnits="userSpaceOnUse" x="0" y="0" width="24" height="24">
<rect x="24" width="24" height="24" transform="rotate(90 24 0)" fill="white"/>
</mask>
<g mask="url(#mask0_914_126)">
<path fill-rule="evenodd" clip-rule="evenodd" d="M2.00608 8.046C1.90773 7.89509 1.85197 7.72041 1.84468 7.54042C1.8374 7.36044 1.87887 7.18182 1.96471 7.02346C2.05055 6.86509 2.17758 6.73286 2.33237 6.64072C2.48715 6.54858 2.66395 6.49996 2.84408 6.5L20.6541 6.5C20.8342 6.49996 21.011 6.54858 21.1658 6.64072C21.3206 6.73286 21.4476 6.8651 21.5334 7.02346C21.6193 7.18183 21.6608 7.36044 21.6535 7.54042C21.6462 7.72041 21.5904 7.89509 21.4921 8.046L12.5871 21.714C12.4963 21.8535 12.372 21.9681 12.2257 22.0474C12.0794 22.1268 11.9155 22.1683 11.7491 22.1683C11.5826 22.1683 11.4188 22.1268 11.2725 22.0474C11.1261 21.9681 11.0019 21.8535 10.9111 21.714L2.00608 8.046Z" fill="#8B95A1"/>
</g>
</svg>
