<svg width="47" height="47" viewBox="0 0 47 47" fill="none">
<mask id="mask0_127_362" style="mask-type:luminance" maskUnits="userSpaceOnUse" x="10" y="0" width="27" height="26">
<rect x="10.5" width="26" height="26" fill="white"/>
</mask>
<g mask="url(#mask0_127_362)">
<path fill-rule="evenodd" clip-rule="evenodd" d="M13.0752 16.9586C12.8162 17.4233 12.6667 17.9108 12.6667 18.4167C12.6667 21.4089 17.5179 23.8334 23.5001 23.8334C29.4822 23.8334 34.3334 21.4089 34.3334 18.4167C34.3334 17.9108 34.1839 17.4233 33.925 16.9586C31.7377 18.8446 27.9645 20.0417 23.5001 20.0417C19.0357 20.0417 15.2635 18.8446 13.0752 16.9586Z" fill="#484848"/>
<path fill-rule="evenodd" clip-rule="evenodd" d="M13.0752 11.5419C12.8162 12.0066 12.6667 12.4941 12.6667 13C12.6667 15.9922 17.5179 18.4167 23.5001 18.4167C29.4822 18.4167 34.3334 15.9922 34.3334 13C34.3334 12.4941 34.1839 12.0066 33.925 11.5419C31.7377 13.428 27.9645 14.625 23.5001 14.625C19.0357 14.625 15.2635 13.428 13.0752 11.5419Z" fill="#484848"/>
<path fill-rule="evenodd" clip-rule="evenodd" d="M34.3334 7.58332C34.3334 4.59224 29.4822 2.16666 23.5001 2.16666C17.5179 2.16666 12.6667 4.59224 12.6667 7.58332C12.6667 10.5755 17.5179 13 23.5001 13C29.4822 13 34.3334 10.5755 34.3334 7.58332Z" fill="#484848"/>
</g>
<path d="M16.7611 29.5312V33.7734H18.4486V34.5469H16.7611V39.9492H15.847V29.5312H16.7611ZM8.76888 37.2422C11.4583 35.9062 12.9232 33.8965 13.1341 31.4297H9.24935V30.6562H14.0658C14.0599 33.6035 12.6771 36.293 9.2845 37.9688L8.76888 37.2422ZM27.6543 29.5312V39.9492H26.7754V29.5312H27.6543ZM18.7246 37.0312C20.9922 35.6895 22.1289 33.8086 22.3105 31.6289H19.1934V30.8672H23.2246C23.2246 31.4004 23.1777 31.9277 23.084 32.4375H24.666V29.8125H25.5449V39.4219H24.666V35.8125H22.7324V35.0508H24.666V33.1992H22.9023C22.3984 34.9629 21.2559 36.5215 19.2871 37.6992L18.7246 37.0312ZM38.3014 35.7188V36.4688H33.9538V39.9492H33.0514V36.4688H28.7624V35.7188H38.3014ZM29.9811 34.4531V29.9648H30.8952V31.4062H36.1452V29.9648H37.071V34.4531H29.9811ZM30.8952 33.7031H36.1452V32.1562H30.8952V33.7031Z" fill="#484848"/>
</svg>
