<svg width="47" height="47" viewBox="0 0 47 47" fill="none">
<mask id="mask0_127_234" style="mask-type:luminance" maskUnits="userSpaceOnUse" x="10" y="0" width="27" height="26">
<rect x="10.5" width="26" height="26" fill="white"/>
</mask>
<g mask="url(#mask0_127_234)">
<path fill-rule="evenodd" clip-rule="evenodd" d="M13.075 16.9586C12.8161 17.4233 12.6666 17.9108 12.6666 18.4167C12.6666 21.4089 17.5178 23.8334 23.5 23.8334C29.4821 23.8334 34.3333 21.4089 34.3333 18.4167C34.3333 17.9108 34.1838 17.4233 33.9249 16.9586C31.7376 18.8446 27.9644 20.0417 23.5 20.0417C19.0355 20.0417 15.2634 18.8446 13.075 16.9586Z" fill="#8B95A1"/>
<path fill-rule="evenodd" clip-rule="evenodd" d="M13.075 11.5419C12.8161 12.0067 12.6666 12.4942 12.6666 13.0001C12.6666 15.9923 17.5178 18.4168 23.5 18.4168C29.4821 18.4168 34.3333 15.9923 34.3333 13.0001C34.3333 12.4942 34.1838 12.0067 33.9249 11.5419C31.7376 13.428 27.9644 14.6251 23.5 14.6251C19.0355 14.6251 15.2634 13.428 13.075 11.5419Z" fill="#8B95A1"/>
<path fill-rule="evenodd" clip-rule="evenodd" d="M34.3333 7.58335C34.3333 4.59227 29.4821 2.16669 23.5 2.16669C17.5178 2.16669 12.6666 4.59227 12.6666 7.58335C12.6666 10.5755 17.5178 13 23.5 13C29.4821 13 34.3333 10.5755 34.3333 7.58335Z" fill="#8B95A1"/>
</g>
<path d="M16.7611 29.5312V33.7734H18.4486V34.5469H16.7611V39.9492H15.847V29.5312H16.7611ZM8.76888 37.2422C11.4583 35.9062 12.9232 33.8965 13.1341 31.4297H9.24935V30.6562H14.0658C14.0599 33.6035 12.6771 36.293 9.2845 37.9688L8.76888 37.2422ZM27.6543 29.5312V39.9492H26.7754V29.5312H27.6543ZM18.7246 37.0312C20.9922 35.6895 22.1289 33.8086 22.3105 31.6289H19.1934V30.8672H23.2246C23.2246 31.4004 23.1777 31.9277 23.084 32.4375H24.666V29.8125H25.5449V39.4219H24.666V35.8125H22.7324V35.0508H24.666V33.1992H22.9023C22.3984 34.9629 21.2559 36.5215 19.2871 37.6992L18.7246 37.0312ZM38.3014 35.7188V36.4688H33.9538V39.9492H33.0514V36.4688H28.7624V35.7188H38.3014ZM29.9811 34.4531V29.9648H30.8952V31.4062H36.1452V29.9648H37.071V34.4531H29.9811ZM30.8952 33.7031H36.1452V32.1562H30.8952V33.7031Z" fill="#8B95A1"/>
</svg>
