<svg width="47" height="47" viewBox="0 0 47 47" fill="none">
<mask id="mask0_127_59" style="mask-type:luminance" maskUnits="userSpaceOnUse" x="10" y="0" width="27" height="26">
<rect x="10.5" width="26" height="26" fill="white"/>
</mask>
<g mask="url(#mask0_127_59)">
<path fill-rule="evenodd" clip-rule="evenodd" d="M28.3908 9.22702C28.1243 9.87043 27.7338 10.4551 27.2414 10.9475C26.7491 11.44 26.1645 11.8307 25.5212 12.0972C24.8778 12.3638 24.1882 12.501 23.4919 12.5011C22.0854 12.5012 20.7366 11.9427 19.742 10.9483C18.7474 9.9539 18.1885 8.60514 18.1884 7.19872C18.1883 6.50233 18.3254 5.81275 18.5919 5.16934C18.8583 4.52594 19.2488 3.94131 19.7412 3.44884C20.7356 2.45424 22.0844 1.89541 23.4908 1.89526C24.8972 1.89512 26.2461 2.45368 27.2407 3.44807C28.2353 4.44246 28.7941 5.79122 28.7942 7.19764C28.7943 7.89403 28.6572 8.58361 28.3908 9.22702ZM12.8844 21.2441C12.8844 23.504 19.2078 24.1063 23.4913 24.1063C27.7748 24.1063 34.0982 23.504 34.0982 21.2441C34.0982 18.9832 31.1277 14.1234 23.4913 14.1234C15.8549 14.1234 12.8844 18.9832 12.8844 21.2441Z" fill="#8B95A1"/>
</g>
<path d="M18.2376 37.8281V38.6133H8.69857V37.8281H18.2376ZM9.54232 31.3477V30.5859H17.3236V31.3477H15.6712V34.9922H17.3001V35.7422H9.56575V34.9922H11.1947V31.3477H9.54232ZM12.1087 34.9922H14.7689V31.3477H12.1087V34.9922ZM28.2754 37.8867V38.6602H18.7363V37.8867H23.0254V35.918H19.9316V32.707H26.166V31.0664H19.9082V30.3047H27.0684V33.457H20.8457V35.1562H27.3145V35.918H23.9277V37.8867H28.2754ZM37.3874 29.5312V34.9453H36.4616V29.5312H37.3874ZM28.9499 33.8086C29.3659 33.8086 29.8171 33.8027 30.2858 33.7969V30.9844H29.2428V30.2461H34.8796V30.9844H33.8249V33.6562C34.3639 33.6152 34.8913 33.5625 35.3952 33.5039L35.4421 34.1836C33.3561 34.4941 30.9069 34.5762 29.0671 34.5703L28.9499 33.8086ZM30.5671 36.1875V35.4492H37.3874V37.9336H31.5046V39.082H37.7858V39.832H30.6022V37.2422H36.4733V36.1875H30.5671ZM31.1764 33.7793C31.7507 33.7617 32.3424 33.7441 32.9342 33.709V30.9844H31.1764V33.7793Z" fill="#8B95A1"/>
</svg>
