<?xml version="1.0" encoding="UTF-8"?>
<svg width="100pt" height="100pt" version="1.1" viewBox="0 0 100 100" xmlns="http://www.w3.org/2000/svg">
 <path d="m91.668 45.832c-2.3008 0-4.168 1.8672-4.168 4.168 0.066406 11.852-5.4453 23.047-14.883 30.223-9.4336 7.1719-21.691 9.4961-33.098 6.2656-11.402-3.2266-20.625-11.633-24.898-22.688-4.2734-11.055-3.1016-23.477 3.168-33.535 6.2695-10.062 16.902-16.59 28.711-17.625 11.809-1.0312 23.414 3.543 31.336 12.359h-11.168c-2.3008 0-4.168 1.8672-4.168 4.168s1.8672 4.1641 4.168 4.1641h25v-25c0-2.3008-1.8672-4.1641-4.168-4.1641s-4.168 1.8633-4.168 4.1641v10.332c-9.8242-10.395-23.945-15.598-38.164-14.059-14.219 1.5391-26.902 9.6367-34.277 21.891s-8.5938 27.254-3.293 40.539c5.2969 13.285 16.508 23.324 30.289 27.141 13.785 3.8125 28.562 0.96094 39.934-7.7109 11.375-8.6719 18.039-22.164 18.012-36.465 0-1.1055-0.4375-2.1641-1.2188-2.9453s-1.8398-1.2227-2.9453-1.2227z" fill="#d6cdc2"/>
</svg>
